<svg xmlns="http://www.w3.org/2000/svg" width="64" height="64" viewBox="0 0 64 64" role="img" aria-label="Campus Crafts logo">
  <defs>
    <linearGradient id="g" x1="0" y1="0" x2="1" y2="1">
      <stop offset="0%" stop-color="#6EE7B7" />
      <stop offset="100%" stop-color="#5B8CFF" />
    </linearGradient>
  </defs>

  <!-- circular backdrop -->
  <circle cx="32" cy="32" r="30" fill="#0E1A34" />

  <!-- browser tab shape -->
  <rect x="16" y="22" width="32" height="12" rx="4" fill="url(#g)" />
  <circle cx="20" cy="28" r="2" fill="#0E1A34" />
  <circle cx="24" cy="28" r="2" fill="#0E1A34" />
  <circle cx="28" cy="28" r="2" fill="#0E1A34" />

  <!-- smile / shield base -->
  <path d="M20 34c0 9 7 16 12 16s12-7 12-16H20z" fill="url(#g)" opacity="0.9" />

  <!-- code chevrons -->
  <path d="M30 42l-4-3 4-3" fill="none" stroke="#0E1A34" stroke-width="2.5" stroke-linecap="round" stroke-linejoin="round" />
  <path d="M34 42l4-3-4-3" fill="none" stroke="#0E1A34" stroke-width="2.5" stroke-linecap="round" stroke-linejoin="round" />

  <!-- mortarboard cap -->
  <path d="M14 20l18-6 18 6-18 6-18-6z" fill="#24467E" />
  <rect x="30" y="18" width="4" height="6" rx="1" fill="#24467E" />
  <circle cx="34" cy="24" r="2" fill="#24467E" />
</svg>